<svg xmlns="http://www.w3.org/2000/svg" viewBox="0 0 48 48"><linearGradient id="e4t2Q3zu0NW9dfIUK4ZJaa" x1="12" x2="44" y1="24" y2="24" gradientUnits="userSpaceOnUse"><stop offset="0" stop-color="#c965eb"/><stop offset="1" stop-color="#c767e5"/></linearGradient><path fill="url(#e4t2Q3zu0NW9dfIUK4ZJaa)" d="M42,6H14c-1.105,0-2,0.895-2,2v32c0,1.105,0.895,2,2,2h21V15.003h9V8C44,6.895,43.105,6,42,6z"/><linearGradient id="e4t2Q3zu0NW9dfIUK4ZJab" x1="39.5" x2="39.5" y1="42" y2="33.054" gradientUnits="userSpaceOnUse"><stop offset="0" stop-color="#7819a2"/><stop offset="1" stop-color="#771aa9"/></linearGradient><path fill="url(#e4t2Q3zu0NW9dfIUK4ZJab)" d="M35,33.054V42h7c1.105,0,2-0.895,2-2v-6.945L35,33.054L35,33.054z"/><linearGradient id="e4t2Q3zu0NW9dfIUK4ZJac" x1="35" x2="44" y1="19.504" y2="19.504" gradientUnits="userSpaceOnUse"><stop offset="0" stop-color="#ae4cd5"/><stop offset="1" stop-color="#ac4ad5"/></linearGradient><path fill="url(#e4t2Q3zu0NW9dfIUK4ZJac)" d="M35,15.003h9v9.002h-9V15.003z"/><linearGradient id="e4t2Q3zu0NW9dfIUK4ZJad" x1="35" x2="44" y1="28.53" y2="28.53" gradientUnits="userSpaceOnUse"><stop offset="0" stop-color="#912fbd"/><stop offset="1" stop-color="#9332bf"/></linearGradient><path fill="url(#e4t2Q3zu0NW9dfIUK4ZJad)" d="M35,24.005h9v9.05h-9V24.005z"/><path d="M22.319,13H12v24h10.319C24.352,37,26,35.352,26,33.319V16.681C26,14.648,24.352,13,22.319,13z" opacity=".05"/><path d="M22.213,36H12V13.333h10.213c1.724,0,3.121,1.397,3.121,3.121v16.425	C25.333,34.603,23.936,36,22.213,36z" opacity=".07"/><path d="M22.106,35H12V13.667h10.106c1.414,0,2.56,1.146,2.56,2.56V32.44C24.667,33.854,23.52,35,22.106,35z" opacity=".09"/><linearGradient id="e4t2Q3zu0NW9dfIUK4ZJae" x1="4.586" x2="23.414" y1="14.586" y2="33.414" gradientUnits="userSpaceOnUse"><stop offset="0" stop-color="#8521b0"/><stop offset="1" stop-color="#64129a"/></linearGradient><path fill="url(#e4t2Q3zu0NW9dfIUK4ZJae)" d="M22,34H6c-1.105,0-2-0.895-2-2V16c0-1.105,0.895-2,2-2h16c1.105,0,2,0.895,2,2v16	C24,33.105,23.105,34,22,34z"/><path fill="#fff" d="M16.501,19v7.393L11.779,19H9.59v10h1.909v-7.45L16.258,29h2.152V19H16.501z"/></svg>
