<svg xmlns="http://www.w3.org/2000/svg" viewBox="0 0 48 48"><linearGradient id="qzlytxNw7OmWoU65bLhaTa" x1="9" x2="39" y1="24" y2="24" gradientUnits="userSpaceOnUse"><stop offset="0" stop-color="#c965eb"/><stop offset="1" stop-color="#c767e5"/></linearGradient><path fill="url(#qzlytxNw7OmWoU65bLhaTa)" d="M39,16v25c0,1.105-0.895,2-2,2H11	c-1.105,0-2-0.895-2-2V7c0-1.105,0.895-2,2-2h17L39,16z"/><linearGradient id="qzlytxNw7OmWoU65bLhaTb" x1="28" x2="39" y1="10.5" y2="10.5" gradientUnits="userSpaceOnUse"><stop offset="0" stop-color="#912fbd"/><stop offset="1" stop-color="#9332bf"/></linearGradient><path fill="url(#qzlytxNw7OmWoU65bLhaTb)" d="M28,5v9c0,1.105,0.895,2,2,2h9L28,5z"/><linearGradient id="qzlytxNw7OmWoU65bLhaTc" x1="14.281" x2="21.889" y1="26.015" y2="26.015" gradientUnits="userSpaceOnUse"><stop offset="0" stop-color="#7819a2"/><stop offset="1" stop-color="#771aa9"/></linearGradient><path fill="url(#qzlytxNw7OmWoU65bLhaTc)" d="M18.05,30.029 c-1.112,0-2.018-0.362-2.718-1.086s-1.05-1.667-1.05-2.829c0-1.227,0.356-2.22,1.067-2.978S17.001,22,18.174,22 c1.108,0,2.004,0.363,2.688,1.088c0.684,0.726,1.026,1.682,1.026,2.87c0,1.22-0.355,2.204-1.064,2.951S19.19,30.029,18.05,30.029z M18.126,23.505c-0.614,0-1.101,0.23-1.462,0.69c-0.361,0.46-0.541,1.069-0.541,1.827c0,0.769,0.18,1.377,0.541,1.825 c0.361,0.448,0.834,0.671,1.419,0.671c0.603,0,1.081-0.217,1.435-0.652s0.531-1.039,0.531-1.811c0-0.805-0.171-1.431-0.514-1.879 C19.19,23.729,18.721,23.505,18.126,23.505z"/><linearGradient id="qzlytxNw7OmWoU65bLhaTd" x1="22.013" x2="28.185" y1="26.012" y2="26.012" gradientUnits="userSpaceOnUse"><stop offset="0" stop-color="#7819a2"/><stop offset="1" stop-color="#771aa9"/></linearGradient><path fill="url(#qzlytxNw7OmWoU65bLhaTd)" d="M28.185,23.554h-2.214v6.34h-1.754v-6.34 h-2.204V22.13h6.172V23.554z"/><linearGradient id="qzlytxNw7OmWoU65bLhaTe" x1="29.23" x2="33.718" y1="26.012" y2="26.012" gradientUnits="userSpaceOnUse"><stop offset="0" stop-color="#7819a2"/><stop offset="1" stop-color="#771aa9"/></linearGradient><path fill="url(#qzlytxNw7OmWoU65bLhaTe)" d="M33.719,23.554h-2.74v1.906h2.518v1.419 h-2.518v3.016H29.23V22.13h4.488V23.554z"/></svg>
