<svg id="Layer_1" data-name="Layer 1" xmlns="http://www.w3.org/2000/svg" viewBox="0 0 16 16"><path d="M3.15,6.22A5.22,5.22,0,0,1,2.9,5c0-.15,0-.29,0-.45a5.69,5.69,0,0,1,.08-.83,4.56,4.56,0,0,0,0,8.52,5.69,5.69,0,0,1-.08-.83c0-.16,0-.3,0-.45a5.22,5.22,0,0,1,.25-1.2,2.27,2.27,0,0,1,0-3.56Z" style="fill:#fff"/><path d="M3.65,5.91c.06.18.12.37.19.54A4.78,4.78,0,0,0,4.6,7.6a6,6,0,0,1,.93-.66l.26-.14.56-.22.18,0a1.21,1.21,0,0,1,0-.18,2.27,2.27,0,0,1-.84-1.56,1.46,1.46,0,0,1,0-.22,2.33,2.33,0,0,1,.2-.92,2.6,2.6,0,0,1,.31-.5,2.27,2.27,0,0,1,3.56,0A5.22,5.22,0,0,1,11,2.9c.15,0,.29,0,.45,0a5.69,5.69,0,0,1,.83.08,4.56,4.56,0,0,0-8.52,0,6.17,6.17,0,0,0-.19.61,4.91,4.91,0,0,0-.12,1c0,.07,0,.14,0,.2A4.69,4.69,0,0,0,3.65,5.91Z" style="fill:#fff"/><path d="M13.06,3.74a6.17,6.17,0,0,0-.61-.19,4.91,4.91,0,0,0-1-.12l-.2,0a4.69,4.69,0,0,0-1.14.2c-.19.06-.37.12-.54.19A4.78,4.78,0,0,0,8.4,4.6,5.18,5.18,0,0,0,8,5a5,5,0,0,0-.66,1s0,.09-.07.13-.07.16-.1.25l.38,0c.15,0,.29,0,.44,0H8c.15,0,.29,0,.44,0l.38,0a3.63,3.63,0,0,1,.45.1l.19.06.18,0a2.27,2.27,0,0,1,1.56-.84,1.46,1.46,0,0,1,.22,0,2.33,2.33,0,0,1,.92.2,2.6,2.6,0,0,1,.5.31,2.27,2.27,0,0,1,0,3.56A5.22,5.22,0,0,1,13.1,11c0,.15,0,.29,0,.45a5.69,5.69,0,0,1-.08.83,4.56,4.56,0,0,0,0-8.52Z" style="fill:#fff"/><path d="M12.35,10.09c-.06-.19-.12-.37-.19-.54A4.78,4.78,0,0,0,11.4,8.4,5.18,5.18,0,0,0,11,8a4.68,4.68,0,0,0-1-.66l-.13-.07-.25-.1a2.46,2.46,0,0,0-.29-.09C9.23,7.05,9.13,7,9,7a4.38,4.38,0,0,0-.82-.1L8,6.86H8l-.19,0A4.48,4.48,0,0,0,7,7c-.11,0-.21.07-.32.1a2.46,2.46,0,0,0-.29.09l-.25.1L6,7.34A4.68,4.68,0,0,0,5,8a5.18,5.18,0,0,0-.41.4,4.78,4.78,0,0,0-.76,1.15c-.07.17-.13.35-.19.54a4.69,4.69,0,0,0-.2,1.13c0,.07,0,.14,0,.21a4.91,4.91,0,0,0,.12,1,6.17,6.17,0,0,0,.19.61,4.56,4.56,0,0,0,8.52,0,6.17,6.17,0,0,0,.19-.61,4.91,4.91,0,0,0,.12-1c0-.07,0-.14,0-.2A4.69,4.69,0,0,0,12.35,10.09ZM9.78,12.85a2.27,2.27,0,0,1-3.56,0,2.6,2.6,0,0,1-.31-.5,2.33,2.33,0,0,1-.2-.92,1.46,1.46,0,0,1,0-.22,2.27,2.27,0,0,1,.84-1.56l.14-.12a2,2,0,0,1,.36-.19,2.41,2.41,0,0,1,.7-.18l.21,0H8l.21,0a2.41,2.41,0,0,1,.7.18,2.47,2.47,0,0,1,.36.19l.14.12a2.27,2.27,0,0,1,.84,1.56,1.46,1.46,0,0,1,0,.22,2.33,2.33,0,0,1-.2.92A2.6,2.6,0,0,1,9.78,12.85Z" style="fill:#fff"/></svg>