<svg xmlns="http://www.w3.org/2000/svg" viewBox="0 0 24 24">
  <path d="M9 3C8.448 3 8 3.448 8 4C8 4.552 8.448 5 9 5L18 5C18.552 5 19 5.448 19 6L19 15L17 15C16.596 15 16.231172 15.243188 16.076172 15.617188C16.025172 15.741187 16 15.871 16 16C16 16.26 16.101969 16.516031 16.292969 16.707031L19.292969 19.707031C19.683969 20.098031 20.317031 20.098031 20.707031 19.707031L23.707031 16.707031C23.993031 16.421031 24.077828 15.992188 23.923828 15.617188C23.768828 15.243187 23.404 15 23 15L21 15L21 6C21 4.343 19.657 3 18 3L9 3 z M 4 4C3.744125 4 3.4879687 4.0974687 3.2929688 4.2929688L0.29296875 7.2929688C0.00696875 7.5789687 -0.077828125 8.0078125 0.076171875 8.3828125C0.23117187 8.7568125 0.596 9 1 9L3 9L3 18C3 19.657 4.343 21 6 21L15 21C15.552 21 16 20.552 16 20C16 19.448 15.552 19 15 19L6 19C5.448 19 5 18.552 5 18L5 9L7 9C7.404 9 7.7688281 8.7568125 7.9238281 8.3828125C7.9748281 8.2588125 8 8.129 8 8C8 7.74 7.8980312 7.4839687 7.7070312 7.2929688L4.7070312 4.2929688C4.5115312 4.0974687 4.255875 4 4 4 z" fill="#FFFFFF" />
</svg>