<svg xmlns="http://www.w3.org/2000/svg" viewBox="0 0 24 24">
  <path d="M10 1C8.696 1 7.5965938 1.837 7.1835938 3L5 3C3.895 3 3 3.895 3 5L3 16C3 17.105 3.895 18 5 18L9 18L9 21C9 21.552 9.448 22 10 22L13 22C13.552 22 14 21.552 14 21C14 20.448 13.552 20 13 20L11 20L11 18L15 18C16.105 18 17 17.105 17 16L17 12L19 12L19 14C19 14.552 19.448 15 20 15C20.552 15 21 14.552 21 14L21 11C21 10.448 20.552 10 20 10L17 10L17 5C17 3.895 16.105 3 15 3L12.816406 3C12.403406 1.837 11.304 1 10 1 z M 10 3C10.552 3 11 3.448 11 4C11 4.552 10.552 5 10 5C9.448 5 9 4.552 9 4C9 3.448 9.448 3 10 3 z M 10 10L13 10C13.552 10 14 10.448 14 11C14 11.552 13.552 12 13 12L11 12L11 14C11 14.552 10.552 15 10 15C9.448 15 9 14.552 9 14L9 11C9 10.448 9.448 10 10 10 z M 20 17C19.448 17 19 17.448 19 18L19 20L17 20C16.448 20 16 20.448 16 21C16 21.552 16.448 22 17 22L20 22C20.552 22 21 21.552 21 21L21 18C21 17.448 20.552 17 20 17 z" fill="#FFFFFF" />
</svg>