<svg xmlns="http://www.w3.org/2000/svg" viewBox="0 0 24 24">
  <path d="M4 4C2.895 4 2 4.895 2 6L2 18C2 19.105 2.895 20 4 20L14.728516 20L11.292969 16.564453C11.104969 16.376453 11 16.122422 11 15.857422L11 12C11 11.448 11.448 11 12 11L15.859375 11C16.124375 11 16.378406 11.104969 16.566406 11.292969L22 16.726562L22 6C22 4.895 21.105 4 20 4L4 4 z M 13 13L13 15.443359L19.291016 21.734375L21.734375 19.289062L15.443359 13L13 13 z M 22.599609 20.154297L20.154297 22.599609L21.376953 23.820312C21.615953 24.059313 22.002234 24.059313 22.240234 23.820312L23.820312 22.240234C24.059312 22.001234 24.059313 21.614953 23.820312 21.376953L22.599609 20.154297 z" fill="#FFFFFF" />
</svg>