<svg xmlns="http://www.w3.org/2000/svg" viewBox="0 0 24 24">
  <path d="M9.5 4C8.9 4 8.3003906 4.3007813 7.9003906 4.8007812L6.3007812 7L8.8007812 7L9.5996094 6L13 6L13 7L15 7L15 6C15 4.9 14.1 4 13 4L9.5 4 z M 18 4C17.448 4 17 4.448 17 5L17 6C17 6.552 17.448 7 18 7L20.5 7C21.3 7 22 6.3 22 5.5C22 4.7 21.3 4 20.5 4L18 4 z M 4 8C2.9 8 2 8.9 2 10L2 18C2 19.1 2.9 20 4 20L15 20C16.1 20 17 19.1 17 18L17 16L21.056641 18.910156C21.472641 19.159156 22 18.860953 22 18.376953L22 9.6230469C22 9.1390469 21.472641 8.8408437 21.056641 9.0898438L17 12L17 10C17 8.9 16.1 8 15 8L4 8 z M 5 10L9 10C9.552 10 10 10.448 10 11L10 13C10 13.552 9.552 14 9 14L5 14C4.448 14 4 13.552 4 13L4 11C4 10.448 4.448 10 5 10 z" fill="#FFFFFF" />
</svg>