<svg width="256" height="256" viewBox="0 0 256 256" fill="none"><g><g><path d="M52.8265 187.42C59.857 228.913 98.7897 257.192 140.416 251.058L128.44 175.444L52.8265 187.42Z" fill="url(#paint0_linear_4701_148)"/><path d="M204.057 163.463C197.027 121.97 158.094 93.6913 116.468 99.8256L128.444 175.439L204.057 163.463Z" fill="url(#paint1_linear_4701_148)"/><path d="M52.8258 187.416C46.6903 145.781 74.9788 106.856 116.463 99.8264L128.439 175.44L52.8258 187.416Z" fill="url(#paint2_linear_4701_148)"/><path d="M204.052 163.464C210.188 205.098 181.899 244.024 140.415 251.053L128.439 175.44L204.052 163.464Z" fill="url(#paint3_linear_4701_148)"/></g><g><g><path fill-rule="evenodd" clip-rule="evenodd" d="M52.9998 105.56V7L124.991 78.5059H81.2596L80.3217 79.2691L52.9998 105.56Z" fill="#0000FF"/></g><path fill-rule="evenodd" clip-rule="evenodd" d="M59.8562 24.1409V88.4191L76.9965 71.9531L77.9202 71.1545H106.994L59.8562 24.1409Z" fill="#00FF00"/></g></g><defs><linearGradient id="paint0_linear_4701_148" x1="129.843" y1="244.12" x2="116.463" y2="99.8218" gradientUnits="userSpaceOnUse"><stop stop-color="#75DDFB"/><stop offset="1" stop-color="#37B4F6"/></linearGradient><linearGradient id="paint1_linear_4701_148" x1="129.843" y1="244.12" x2="116.463" y2="99.8218" gradientUnits="userSpaceOnUse"><stop stop-color="#75DDFB"/><stop offset="1" stop-color="#37B4F6"/></linearGradient><linearGradient id="paint2_linear_4701_148" x1="105.884" y1="266.862" x2="113.243" y2="117.557" gradientUnits="userSpaceOnUse"><stop stop-color="#50B3ED"/><stop offset="1" stop-color="#2960D9"/></linearGradient><linearGradient id="paint3_linear_4701_148" x1="105.884" y1="266.862" x2="113.243" y2="117.557" gradientUnits="userSpaceOnUse"><stop stop-color="#50B3ED"/><stop offset="1" stop-color="#2960D9"/></linearGradient></defs></svg>
