<svg width="256" height="256" viewBox="0 0 256 256" fill="none"><g><g><path d="M60.227 140.687C41.526 178.388 56.4013 224.15 93.6832 243.655L128.439 175.443L60.227 140.687Z" fill="url(#paint0_linear_4701_180)"/><path d="M196.657 210.196C215.358 172.496 200.483 126.733 163.201 107.229L128.445 175.441L196.657 210.196Z" fill="url(#paint1_linear_4701_180)"/><path d="M60.2291 140.683C79.7375 103.394 125.503 88.5296 163.197 107.227L128.441 175.439L60.2291 140.683Z" fill="url(#paint2_linear_4701_180)"/><path d="M196.653 210.194C177.144 247.484 131.378 262.348 93.685 243.65L128.441 175.439L196.653 210.194Z" fill="url(#paint3_linear_4701_180)"/></g><g><g><path fill-rule="evenodd" clip-rule="evenodd" d="M53 105.56V7L124.992 78.5059H81.2599L80.322 79.2691L53 105.56Z" fill="#0000FF"/></g><path fill-rule="evenodd" clip-rule="evenodd" d="M59.8563 24.1409V88.4191L76.9967 71.9531L77.9204 71.1545H106.994L59.8563 24.1409Z" fill="#00FF00"/></g></g><defs><linearGradient id="paint0_linear_4701_180" x1="89.2077" y1="231.827" x2="163.199" y2="107.223" gradientUnits="userSpaceOnUse"><stop stop-color="#75DDFB"/><stop offset="1" stop-color="#37B4F6"/></linearGradient><linearGradient id="paint1_linear_4701_180" x1="89.2077" y1="231.827" x2="163.199" y2="107.223" gradientUnits="userSpaceOnUse"><stop stop-color="#75DDFB"/><stop offset="1" stop-color="#37B4F6"/></linearGradient><linearGradient id="paint2_linear_4701_180" x1="56.4568" y1="236.144" x2="150.169" y2="119.678" gradientUnits="userSpaceOnUse"><stop stop-color="#50B3ED"/><stop offset="1" stop-color="#2960D9"/></linearGradient><linearGradient id="paint3_linear_4701_180" x1="56.4568" y1="236.144" x2="150.169" y2="119.678" gradientUnits="userSpaceOnUse"><stop stop-color="#50B3ED"/><stop offset="1" stop-color="#2960D9"/></linearGradient></defs></svg>
